<?xml version="1.0" standalone="no"?>
<!DOCTYPE svg PUBLIC "-//W3C//DTD SVG 20010904//EN"
 "http://www.w3.org/TR/2001/REC-SVG-20010904/DTD/svg10.dtd">
<svg version="1.0" xmlns="http://www.w3.org/2000/svg"
 width="1280.000000pt" height="640.000000pt" viewBox="0 0 1280.000000 640.000000"
 preserveAspectRatio="xMidYMid meet">
<g transform="translate(0.000000,640.000000) scale(0.100000,-0.100000)"
fill="#000000" stroke="none">
<path d="M4740 5724 c-25 -2 -103 -8 -175 -14 -1487 -119 -2892 -721 -4000
-1713 -151 -134 -350 -335 -432 -434 -116 -141 -157 -304 -118 -472 32 -135
106 -234 364 -491 707 -702 1633 -1266 2613 -1591 552 -183 1117 -291 1726
-330 237 -15 720 -7 902 15 1205 147 2528 707 4093 1733 109 71 194 120 200
116 61 -37 464 -345 742 -567 443 -354 766 -633 1148 -989 143 -133 262 -243
267 -245 4 -2 153 151 331 340 177 189 340 361 361 383 l38 41 -258 241 c-293
274 -457 420 -727 649 -281 237 -688 564 -895 719 -36 26 -75 57 -87 68 l-22
19 157 121 c580 444 1066 856 1579 1335 l253 236 -34 36 c-18 19 -178 189
-355 377 -177 188 -326 345 -331 348 -11 7 -33 -12 -288 -251 -449 -424 -1051
-926 -1627 -1360 -132 -99 -245 -183 -252 -187 -6 -4 -105 55 -230 136 -1394
917 -2690 1490 -3778 1671 -301 50 -402 58 -770 61 -192 1 -370 1 -395 -1z
m820 -1078 c969 -137 2035 -586 3338 -1406 28 -18 52 -36 52 -40 0 -8 -53 -41
-335 -213 -1060 -646 -2042 -1058 -2866 -1202 -230 -40 -404 -55 -649 -55
-1182 0 -2325 367 -3300 1058 -138 99 -386 294 -475 376 l-50 46 45 41 c82 74
323 264 445 351 561 400 1219 709 1870 879 319 83 676 145 970 168 77 6 156
13 175 15 97 11 672 -3 780 -18z"/>
<path d="M4165 4472 c-19 -12 -149 -195 -365 -515 -250 -370 -338 -493 -346
-484 -6 7 -93 143 -194 302 -100 160 -198 305 -216 323 -28 27 -41 32 -80 32
-39 0 -51 -5 -80 -34 -27 -27 -34 -42 -34 -73 0 -44 -5 -35 296 -508 l172
-269 -235 -349 -235 -350 5 -46 c7 -63 49 -101 112 -101 35 0 51 6 75 28 16
15 114 152 217 305 104 153 192 279 197 280 5 1 161 -235 345 -525 185 -290
345 -534 356 -542 26 -20 105 -20 133 0 34 23 55 72 49 111 -4 20 -146 253
-372 608 l-365 575 367 543 c354 522 367 544 368 589 0 40 -5 53 -31 79 -40
39 -96 48 -139 21z"/>
<path d="M4993 4465 c-271 -73 -494 -365 -602 -788 -75 -292 -82 -669 -16
-977 90 -425 308 -741 581 -842 89 -33 254 -32 344 3 349 133 594 614 617
1209 26 687 -260 1290 -662 1395 -73 18 -192 18 -262 0z m262 -240 c156 -76
291 -276 370 -550 164 -565 26 -1288 -294 -1541 -71 -56 -170 -89 -239 -80
-253 36 -470 398 -527 876 -72 602 149 1209 478 1316 60 20 147 11 212 -21z"/>
<path d="M4723 3251 c-40 -25 -53 -49 -53 -99 0 -50 29 -88 78 -102 22 -6 179
-10 392 -10 401 0 409 1 443 72 22 45 12 91 -29 129 l-26 24 -386 3 c-370 2
-388 1 -419 -17z"/>
<path d="M5867 4390 c-41 -36 -52 -78 -33 -125 8 -18 156 -271 330 -562 l315
-529 -209 -528 c-116 -290 -210 -538 -210 -552 0 -94 117 -149 189 -89 24 21
51 80 140 303 60 152 241 608 401 1012 314 790 309 773 259 826 -46 49 -130
52 -172 6 -9 -9 -75 -166 -147 -347 -72 -182 -135 -334 -139 -338 -4 -4 -131
200 -282 454 -200 337 -282 466 -304 480 -46 29 -98 25 -138 -11z"/>
<path d="M7234 3921 c-19 -12 -37 -34 -43 -54 -15 -45 -17 -40 165 -389 80
-154 143 -285 141 -291 -3 -7 -100 -142 -216 -302 -196 -270 -211 -293 -211
-333 0 -35 6 -49 29 -73 48 -48 17 -55 573 120 142 44 273 87 292 95 36 15 66
59 66 96 0 53 -47 99 -101 100 -27 0 -364 -97 -467 -135 -17 -6 -19 -9 135
204 115 160 133 189 133 222 0 29 -25 86 -105 240 -58 111 -104 204 -101 206
2 3 92 -28 200 -67 209 -78 227 -80 271 -35 45 44 45 104 2 145 -25 25 -673
270 -711 270 -11 0 -35 -9 -52 -19z"/>
<path d="M2308 3860 c-49 -38 -49 -37 -46 -678 l3 -604 33 -29 c54 -48 153
-35 180 26 17 37 17 1213 0 1250 -24 54 -121 74 -170 35z"/>
</g>
</svg>
