<?xml version="1.0" encoding="UTF-8" standalone="no"?>
<svg
   xmlns="http://www.w3.org/2000/svg"
   xmlns:dc="http://purl.org/dc/elements/1.1/"
   xmlns:cc="http://web.resource.org/cc/"
   xmlns:rdf="http://www.w3.org/1999/02/22-rdf-syntax-ns#"
   xmlns:svg="http://www.w3.org/2000/svg"
   width="600"
   height="600"
   viewBox="0 0 600 600"
   version="1.0">
  <title>Religious symbols</title>
  <metadata>
    <rdf:RDF>
      <cc:Work
         rdf:about="">
        <dc:format>image/svg+xml</dc:format>
        <dc:type
           rdf:resource="http://purl.org/dc/dcmitype/StillImage" />
      </cc:Work>
    </rdf:RDF>
  </metadata>
  <g style="fill:#000000; stroke:none">
  <g transform="translate(-16,5) scale(0.7,0.7)">
    <path d="M 170.63135,813.89671 C 165.82315,809.05682 165.67044,807.57697 169.35205,801.49877 C 172.81211,795.78633 173.29083,781.9328 170.07113,780.68914 C 168.93878,780.25175 165.13945,781.29379 161.62815,783.00479 C 155.36395,786.05723 155.26078,786.21578 156.13807,791.44265 C 156.86362,795.76544 156.47192,797.33357 154.06014,799.76125 C 147.79268,806.07002 139.69232,800.2822 141.97523,791.12643 C 143.20586,786.19086 151.28949,778.32155 158.75963,774.78702 C 162.28654,773.11825 165.17219,771.13861 165.17219,770.38781 C 165.17219,768.91962 155.19223,763.36289 152.55537,763.36289 C 151.67796,763.36289 146.33108,767.88097 140.67342,773.40308 C 135.01575,778.92518 130.17253,783.17988 129.91073,782.85796 C 129.64891,782.53605 128.66294,779.40609 127.71969,775.90249 C 126.7181,772.1822 122.0167,764.02464 116.41791,756.29235 C 104.14346,739.34052 100.25724,732.57734 96.334389,721.34117 C 90.616275,704.96284 89.332737,698.40871 89.332737,685.58848 C 89.332737,669.37969 94.044594,656.58713 104.26713,645.04209 C 110.94807,637.49683 122.72724,629.12411 124.35552,630.76314 C 124.79778,631.2083 121.9195,635.47581 117.95935,640.24645 C 108.14864,652.06506 106.38294,655.9852 105.63364,667.61137 C 104.40755,686.6358 111.71123,709.28829 123.94195,724.39484 C 133.90903,736.70549 167.75583,763.11729 170.98805,761.1065 C 171.61608,760.71578 172.12994,757.62879 172.12994,754.24652 C 172.12994,749.13614 171.37824,747.38976 167.68175,743.91233 C 165.23526,741.6108 160.82588,738.63486 157.88313,737.29911 C 154.33857,735.6902 152.78903,734.19805 153.29217,732.87823 C 156.11009,725.48644 155.8029,724.39036 150.09144,721.45737 C 137.26387,714.87009 125.29792,698.0498 121.81722,681.71289 C 117.14926,659.80337 129.43845,632.75466 149.41458,620.97069 C 154.58545,617.92037 155.2267,617.00782 154.55939,613.64923 C 153.89201,610.29033 154.74623,609.0753 161.41728,603.8947 C 165.60839,600.63996 170.75775,595.47828 172.8603,592.42431 C 174.96283,589.37034 177.38067,586.89112 178.23328,586.91495 C 179.08588,586.93878 181.91498,589.80572 184.52019,593.28595 C 187.12538,596.76617 192.27488,601.94688 195.96351,604.79861 C 201.65254,609.19687 202.55918,610.54151 201.9389,613.66073 C 201.28982,616.92468 202.05174,617.81738 208.71939,621.60519 C 233.11513,635.46407 243.46165,668.74082 231.4967,694.86216 C 226.93186,704.8279 217.59728,715.25551 208.42021,720.64081 C 201.17975,724.88965 200.60649,726.23135 203.3031,732.61743 C 203.9615,734.17662 202.78709,735.47684 199.13843,737.22824 C 196.34353,738.56982 191.94114,741.29181 189.35533,743.2771 C 185.1463,746.50865 184.65389,747.60281 184.65389,753.72408 C 184.65389,758.76807 185.18396,760.56145 186.67481,760.56145 C 190.44136,760.56145 213.06375,743.93579 223.58654,733.43426 C 239.46753,717.58538 246.45762,704.21539 250.21365,682.50445 C 253.15034,665.52946 249.86339,654.25362 237.64815,639.3988 C 233.84712,634.77641 231.34032,630.77984 232.0775,630.51754 C 234.37127,629.70135 247.0539,638.71764 252.70968,645.18533 C 263.60984,657.65019 269.25531,676.11139 267.43144,693.32668 C 266.22712,704.69409 258.45516,728.90464 253.44665,736.89096 C 251.37247,740.19835 245.41721,748.79616 240.21276,755.99724 C 235.00829,763.19832 230.03695,771.42586 229.16532,774.28066 C 228.29369,777.13547 227.31513,780.31036 226.99073,781.33598 C 226.61433,782.52602 222.4523,779.61183 215.48784,773.28182 C 209.48565,767.8264 204.07488,763.36289 203.46392,763.36289 C 201.61418,763.36289 190.22009,769.39594 190.22009,770.37537 C 190.22009,770.87751 193.3924,772.784 197.26966,774.61198 C 205.10292,778.30508 213.32251,786.56703 214.7135,792.14572 C 216.04734,797.49524 213.27966,802.58317 209.03584,802.58317 C 203.59982,802.58317 199.6812,797.74755 200.21115,791.6934 C 200.61857,787.0389 200.18021,786.32984 195.09051,783.41041 C 185.86558,778.11905 184.64678,778.76592 184.69814,788.92611 C 184.72577,794.39322 185.50959,798.70164 186.78546,800.39963 C 189.89036,804.53172 189.29775,810.64255 185.41291,814.55299 C 180.81738,819.17883 175.65098,818.94945 170.63135,813.89671 z
M164.10992,702.71047 C 168.16144,689.7386 168.45536,662.69247 164.69901,648.50351 C 163.37332,643.49592 161.66092,637.03508 160.89369,634.14608 C 160.12646,631.25709 158.63402,628.89337 157.57717,628.89337 C 154.09933,628.89337 140.01986,643.20189 136.34001,650.47605 C 128.94517,665.09378 130.77093,685.21681 140.74647,699.04294 C 145.47746,705.60009 157.63932,714.86067 159.77496,713.53207 C 160.42691,713.12648 162.37765,708.25676 164.10992,702.71047 z
M208.53889,705.58302 C 220.75493,693.75313 225.65332,683.58766 225.58164,670.21473 C 225.5243,659.51756 222.58281,651.06 215.81201,642.1245 C 211.21622,636.05937 200.5077,628.38245 197.99637,629.35248 C 197.00006,629.73733 194.69998,636.2523 192.88511,643.8302 C 188.77015,661.01186 188.27445,686.84281 191.82772,698.92958 C 193.07337,703.16677 194.48556,708.36696 194.96592,710.48555 C 195.44629,712.60415 196.66265,714.33755 197.66895,714.33755 C 198.67525,714.33755 203.56673,710.39801 208.53889,705.58302 z
M434.44154,813.79772 C 433.07685,811.14128 428.7388,805.48273 424.80144,801.22315 C 414.93112,790.54507 414.14921,789.38294 412.78459,783.36293 C 411.01057,775.53694 413.44152,768.02466 418.81179,764.73727 C 422.59031,762.42427 425.49229,762.08599 439.05706,762.37736 L 454.89157,762.71747 L 458.92769,767.26446 C 462.1238,770.8651 462.96381,773.13318 462.96381,778.16216 C 462.96381,786.37476 460.41452,791.12996 449.94739,802.44159 C 445.24162,807.52704 440.38599,813.24932 439.15712,815.15776 L 436.92282,818.62762 L 434.44154,813.79772 z
M380.8391,803.75764 C 383.04846,799.64489 385.89722,791.55247 387.16965,785.77448 C 391.03408,768.22649 396.73412,762.54917 411.47647,761.56452 L 419.13,761.05332 L 414.60746,765.56985 C 410.67546,769.49662 410.08492,771.02502 410.08492,777.27506 C 410.08492,784.12402 412.11742,790.57338 415.96392,795.92973 C 420.02906,801.59059 412.25147,805.54638 392.04102,808.09726 C 386.24497,808.82882 380.44959,809.83416 379.16241,810.33136 C 377.33525,811.03713 377.70291,809.59566 380.8391,803.75764 z
M477.85182,808.13273 C 470.3505,806.74687 462.67959,804.60157 460.80534,803.36542 C 457.20473,800.99065 456.36891,797.78558 458.93406,796.18978 C 461.63342,794.51048 465.68475,783.85476 465.71635,778.35112 C 465.75085,772.34228 462.77155,765.60594 459.13708,763.47511 C 457.26767,762.3791 458.48592,762.03746 464.38023,762.00477 C 478.32296,761.92742 484.48606,768.64744 488.57457,788.38535 C 489.74222,794.02233 492.24086,801.41386 494.12711,804.81096 L 497.55664,810.98752 L 494.5236,810.82001 C 492.85544,810.72788 485.35314,809.51861 477.85182,808.13273 z
M360.59126,789.72989 C 363.32151,785.64899 365.55534,781.63715 365.55534,780.8147 C 365.55534,779.99225 367.41271,776.37125 369.68283,772.76806 C 374.26997,765.48716 385.37274,758.87997 390.94488,760.11512 C 397.89311,761.6553 397.96538,761.82909 393.69379,766.72622 C 391.41669,769.33679 388.43713,774.53304 387.07256,778.27342 C 383.7314,787.43175 382.94594,788.10639 372.51308,790.77902 C 367.53829,792.05344 361.70383,794.00819 359.5476,795.12292 L 355.62719,797.14971 L 360.59126,789.72989 z
M504.06868,792.23249 L 491.5989,787.87557 L 488.3029,779.14973 C 486.4901,774.35051 483.24005,768.52 481.08058,766.19303 L 477.15425,761.96217 L 484.01922,761.96217 C 491.69251,761.96217 498.6611,764.44329 502.18181,768.42884 C 503.46987,769.88696 506.82658,775.80446 509.64115,781.57885 C 512.45571,787.35324 515.72572,793.18081 516.90785,794.52901 C 519.59825,797.59742 519.2401,797.53335 504.06868,792.23249 z
M520.71312,773.08602 C 519.18242,772.46204 515.73751,771.59574 513.05778,771.16089 C 510.37804,770.72605 505.15924,768.20447 501.46043,765.55738 L 494.73535,760.74451 L 500.34654,759.05226 C 507.78688,756.80839 512.97638,758.97871 519.58654,767.09872 C 524.919,773.6492 525.15363,774.89614 520.71312,773.08602 z
M351.63984,772.29891 C 351.63984,770.46642 358.78912,761.90043 362.19136,759.65649 C 365.13322,757.7162 366.46208,757.65147 371.89849,759.1836 L 378.19715,760.95875 L 373.61568,764.88376 C 370.83275,767.26793 366.57597,769.18481 362.77224,769.76668 C 359.32815,770.29354 355.41442,771.29653 354.07505,771.99556 C 352.73569,772.69459 351.63984,772.8311 351.63984,772.29891 z
M427.4793,758.53323 C 412.34284,752.94054 406.12867,731.7397 413.02875,709.23238 C 416.56134,697.70945 423.73,683.04559 431.37431,671.70559 L 436.97893,663.3914 L 440.6746,667.8474 C 446.29462,674.62367 456.01125,692.38315 459.70888,702.63716 C 466.5683,721.65924 466.22796,737.94044 458.71512,750.1766 C 453.53057,758.62071 438.55756,762.62648 427.4793,758.53323 z
M469.92156,759.45894 C 469.92156,758.71711 471.71272,757.74959 473.90192,757.30885 C 476.09112,756.86813 479.9374,754.76686 482.44924,752.63936 C 493.55706,743.23113 495.0311,728.22766 487.32865,702.97466 C 484.6569,694.21519 482.80504,685.98869 483.21341,684.69357 C 484.39933,680.93244 494.63807,672.35924 501.45858,669.41636 C 509.95765,665.74921 510.37497,665.92616 507.34339,671.91163 C 504.13075,678.2546 504.03011,685.91793 506.94264,702.43139 C 511.96839,730.92648 505.61162,748.41945 487.31593,756.44151 C 480.37101,759.48663 469.92156,761.29931 469.92156,759.45894 z
M486.62016,759.90577 C 486.62016,759.75548 489.65286,757.65444 493.35951,755.23679 C 500.77572,750.39956 506.27609,743.17133 508.9063,734.80618 C 510.72127,729.03383 510.07504,705.62354 507.74942,692.89681 C 506.62105,686.72189 506.8463,685.70893 510.46645,680.67852 C 512.63751,677.66168 516.77399,673.98136 519.65863,672.50003 C 525.57296,669.46288 536.65846,666.18814 537.64925,667.18548 C 538.00807,667.54666 537.09058,670.26698 535.61038,673.23062 C 531.63087,681.19843 529.88498,690.452 528.3832,711.5361 C 527.6424,721.93648 526.35464,732.85421 525.52154,735.79773 C 522.31777,747.11718 510.3279,755.86483 493.92579,758.84958 C 489.90769,759.58076 486.62016,760.05605 486.62016,759.90577 z
M374.30267,757.12862 C 365.16608,754.25439 356.34054,748.442 353.1007,743.16529 C 349.06095,736.58574 346.13097,721.63798 346.07723,707.33393 C 346.02719,694.01297 343.35533,680.68059 339.02259,672.13172 L 336.13432,666.43293 L 342.14765,667.44114 C 350.59498,668.85746 357.25547,672.582 363.21504,679.22203 C 366.03292,682.36165 368.33844,685.32612 368.33844,685.80977 C 368.33844,686.29342 367.32618,693.0676 366.08898,700.86352 C 361.8501,727.5737 365.44055,741.85339 379.24306,753.17907 C 385.27081,758.12517 385.98177,759.1445 383.34972,759.06701 C 381.59901,759.01548 377.52784,758.14321 374.30267,757.12862 z
M389.46313,757.50249 C 382.35194,755.54167 370.32387,742.94766 368.30461,735.34841 C 366.27673,727.71676 366.25548,710.78838 368.26087,700.4893 C 370.42735,689.36286 370.09722,675.69297 367.5419,670.71895 C 365.3806,666.51192 365.39339,666.47183 368.58556,667.44522 C 379.42932,670.75187 391.99478,680.77558 391.99478,686.11921 C 391.99478,687.42968 390.48695,693.21182 388.64404,698.96844 C 381.13457,722.42543 380.67878,734.90916 386.93922,745.66222 C 390.30363,751.44099 399.12271,757.76 403.82344,757.76 C 405.146,757.76 402.91488,756.01775 398.8654,753.88833 C 383.72829,745.92847 381.18396,731.07598 389.97099,701.96734 C 395.92948,682.22881 396.99932,675.32673 394.9967,669.54412 C 393.55483,665.38069 393.63635,665.19948 396.56196,666.06469 C 401.51772,667.53033 414.04636,675.44032 418.01299,679.60789 L 421.66464,683.44452 L 417.3811,692.93795 C 410.40763,708.39304 408.45347,715.76546 408.4786,726.52448 C 408.50571,738.13876 411.88225,747.43461 418.61954,754.44331 L 422.83695,758.8306 L 408.45953,758.80336 C 400.55195,758.78837 392.00357,758.20298 389.46313,757.50249 z
M456.28839,755.30873 C 463.8116,747.22777 466.29066,739.94169 466.17765,726.2437 C 466.07121,713.34106 466.12826,713.5518 455.85422,688.10768 C 454.13426,683.84816 454.26585,683.33897 458.14884,679.2282 C 462.38294,674.7457 470.69109,669.31394 476.93601,666.94537 L 480.47159,665.6044 L 479.92263,674.2827 C 479.47959,681.28644 480.35452,686.26326 484.45694,700.07477 C 487.25274,709.48736 489.89734,720.22377 490.33381,723.93346 C 491.49811,733.82893 487.8472,745.17953 481.77342,750.54754 C 476.51602,755.19404 465.37428,759.16072 457.58048,759.16072 L 452.70227,759.16072 L 456.28839,755.30873 z
M430.30919,660.37967 C 421.84005,658.18372 415.65112,651.90371 415.65112,645.50587 C 415.65112,641.37644 435.35119,558.22574 437.61957,552.78069 C 438.95873,549.56618 460.30768,636.71524 460.23207,645.08776 C 460.12317,657.14883 445.89392,664.42061 430.30919,660.37967 z
M449.32484,655.33362 C 453.05681,653.36191 456.00606,648.2487 456.00606,643.75016 C 456.00606,637.30278 438.87325,566.98469 437.7893,568.98322 C 437.25829,569.96227 432.97372,587.20071 428.26804,607.29088 C 419.23915,645.83835 419.10836,647.72085 425.08275,653.13675 C 430.48152,658.03083 442.20826,659.09354 449.32484,655.33362 z
M703.00612,552.35156 C 675.96258,547.95091 654.69041,536.41834 635.44269,515.72251 C 626.45605,506.05974 622.69523,500.62095 617.32505,489.52131 C 608.10571,470.46584 605.83329,460.15637 605.90137,437.69451 C 605.94857,422.12091 606.49617,417.6603 609.68441,406.87858 C 616.25326,384.66463 629.27918,364.97739 646.8746,350.6697 C 659.94494,340.04158 668.16435,335.41416 682.84533,330.41871 C 708.55269,321.67133 742.4082,323.46604 766.30743,334.8431 C 791.26129,346.72222 814.1102,370.89076 824.10867,395.98264 C 834.4355,421.89858 834.22103,456.62154 823.57143,482.96318 C 815.58035,502.72906 796.58337,525.07502 778.27633,536.2434 C 769.62036,541.52405 756.5409,547.11928 746.14416,549.98914 C 738.93811,551.97827 710.33748,553.54454 703.00612,552.35156 z
M794.15263,487.2467 C 808.54195,480.39499 819.48682,466.34064 823.37923,449.7167 C 825.54807,440.45392 824.45489,420.04669 821.19702,408.97966 C 811.24868,375.18503 782.90267,346.80483 748.23149,335.92612 C 739.38346,333.14989 734.82949,332.65144 718.31317,332.65144 C 696.32115,332.65144 685.79402,335.07392 668.7286,344.06177 C 644.7447,356.69339 623.6425,384.01084 616.80159,411.28293 C 613.51347,424.3914 614.13418,427.89539 618.04737,418.31545 C 626.03648,398.75715 637.11408,389.48325 656.01278,386.53168 C 674.32311,383.67201 691.12876,389.06223 703.38102,401.72453 C 712.09209,410.72714 716.2557,420.56158 718.4075,437.21713 C 720.60927,454.25938 722.26192,459.50541 728.36961,468.83991 C 738.9044,484.94045 752.8652,491.79364 773.97516,491.22714 C 784.12099,490.95486 787.9524,490.19905 794.15263,487.2467 z
M763.23463,450.64425 C 751.74852,441.09568 757.61119,424.38763 772.44781,424.38763 C 779.13184,424.38763 783.67957,428.06142 785.60818,435.01894 C 789.35025,448.51876 773.76823,459.40099 763.23463,450.64425 z
M675.5886,449.66934 C 680.50947,444.71602 681.81541,439.19538 679.41531,433.4927 C 672.75747,417.67361 650.84732,422.34334 650.82822,439.58549 C 650.82436,443.05847 652.05254,445.51555 655.55428,449.04038 C 661.95835,455.48666 669.57192,455.7257 675.5886,449.66934 z
M147.99184,543.96529 C 123.08097,538.5867 102.78101,525.72465 85.759961,504.53516 C 69.943343,484.84509 62.205381,462.17184 62.231431,435.59342 C 62.262463,403.92617 71.709888,380.14777 92.811611,358.62563 C 115.48499,335.50051 140.53092,324.90685 172.40465,324.96022 C 187.71887,324.98585 199.65323,327.43335 214.5722,333.60795 C 222.97963,337.08756 235.42407,344.3344 234.5327,345.23165 C 234.26875,345.49734 226.53868,344.14874 217.35475,342.23473 C 204.71917,339.60138 198.45614,338.96488 191.61164,339.61846 C 152.97113,343.30822 118.99192,372.34539 108.6643,410.50166 C 105.64262,421.66552 105.26367,447.09635 107.95646,458.00501 C 117.54163,496.83529 150.36993,526.409 188.82854,530.85949 C 197.68234,531.88407 201.86787,531.53166 216.42665,528.53582 C 225.86546,526.59353 233.8862,525.30443 234.25051,525.67113 C 235.24153,526.66869 219.77101,535.81021 211.63308,539.03573 C 193.88227,546.07141 167.28726,548.13142 147.99184,543.96529 z
M216.75353,459.05555 C 218.79873,452.69977 220.8821,446.16615 221.38326,444.5364 C 222.15424,442.02911 220.41592,440.19739 210.08403,432.63025 L 197.87361,423.68727 L 213.16487,422.9869 L 228.45614,422.28654 L 232.97408,408.97966 C 235.45896,401.66088 237.71994,395.04246 237.99847,394.27206 C 238.277,393.50166 240.6344,399.48976 243.23714,407.57894 L 247.9694,422.28654 L 263.27644,422.9869 L 278.58348,423.68727 L 266.31933,432.60122 C 258.42408,438.33974 254.31702,442.20205 254.79021,443.44332 C 257.14139,449.61078 262.72669,469.53072 262.2417,470.01892 C 261.92466,470.33805 256.53978,466.81998 250.27532,462.20099 C 244.01084,457.58201 238.58979,453.80284 238.22855,453.80284 C 237.8673,453.80284 232.44247,457.58479 226.17339,462.20718 C 219.9043,466.82957 214.38354,470.61153 213.90501,470.61153 C 213.4265,470.61153 214.70833,465.41134 216.75353,459.05555 z
M674.18488,291.94718 C 645.97406,285.06234 617.98429,257.19169 604.38379,222.44315 C 600.55851,212.66981 594.51716,188.47292 593.31969,178.12914 C 592.69015,172.69115 592.96184,171.96446 596.06899,170.77534 C 597.96532,170.0496 600.00544,169.45582 600.60261,169.45582 C 601.19978,169.45582 603.64382,177.35664 606.03379,187.01322 C 617.3543,232.75299 642.06655,263.19088 673.1842,269.72187 C 693.52063,273.9901 709.24233,267.12581 717.57526,250.3402 C 725.44653,234.48452 722.81745,212.96651 710.51177,192.52838 C 707.9397,188.2565 704.16864,183.15406 702.13162,181.1896 L 698.42794,177.61786 L 689.34709,186.75858 C 681.63039,194.52617 669.55181,202.92336 668.25799,201.42001 C 667.08394,200.0558 657.78076,177.07508 657.78076,175.53913 C 657.78076,174.53386 659.5028,173.29401 661.60752,172.78392 C 674.30543,169.70653 689.59527,157.61265 693.37158,147.65937 C 698.98761,132.85703 692.82201,119.85434 679.24201,117.86135 C 669.02683,116.36219 654.56451,118.56442 644.52078,123.1485 C 638.01959,126.11571 635.32826,126.75898 634.41954,125.56284 C 633.73821,124.66603 631.09568,118.64385 628.54724,112.18024 C 623.01629,98.152055 623.08766,98.034353 639.33004,94.396938 C 660.71185,89.608576 680.17614,93.948146 692.36977,106.22217 C 705.2979,119.23553 710.94329,140.54395 705.9169,157.35551 C 704.20767,163.07228 704.22038,164.17471 706.0163,165.98247 C 708.92255,168.90788 709.57332,168.70664 716.89137,162.61948 C 727.00244,154.20909 737.48764,149.45922 747.96349,148.54355 L 757.10418,147.74459 L 758.71211,141.44133 C 762.50822,126.56019 771.5879,114.38571 782.32445,109.78071 C 789.53325,106.68883 806.86271,106.5749 813.82853,109.57362 C 830.01119,116.54011 838.67158,133.21444 841.4808,162.81409 C 844.83641,198.17075 836.91683,230.43283 821.0784,245.9275 C 812.3401,254.47615 804.08385,257.92492 792.0653,258.04671 C 781.03723,258.15847 775.6285,256.01349 770.01975,249.30391 C 764.62991,242.85622 763.3891,236.80744 762.26027,211.47754 C 760.96255,182.3578 759.12267,177.87312 748.46556,177.85323 C 743.3833,177.84374 732.41274,181.95127 727.94688,185.5357 L 724.26622,188.48991 L 731.42066,201.03428 C 739.36499,214.96358 742.30463,223.22704 744.05276,236.54373 C 747.71764,264.46166 732.70241,287.01297 706.76439,292.54697 C 697.12093,294.60445 684.09014,294.36455 674.18488,291.94718 z
M804.58925,231.27143 C 816.22644,225.92726 824.70132,213.48872 828.27612,196.50628 C 830.81375,184.45104 830.81015,176.85527 828.26104,164.74438 C 824.85324,148.5538 815.61445,136.40634 804.0577,132.92101 C 791.46223,129.12245 774.04027,135.63633 768.35029,146.27163 C 765.77282,151.08925 765.77635,151.18291 768.65528,154.34772 C 773.0297,159.15656 773.38917,161.56991 773.86932,189.35187 C 774.33068,216.04722 775.39941,222.03983 780.77777,228.08924 C 786.37292,234.38244 795.2357,235.56688 804.58925,231.27143 z
M130.98573,279.91706 L 122.03415,271.26464 L 122.03415,216.85841 L 122.03415,162.45219 L 93.507386,162.45219 L 64.980618,162.45219 L 64.980618,129.53517 L 64.980618,96.61815 L 93.507386,96.61815 L 122.03415,96.61815 L 122.03415,67.202941 L 122.03415,37.787736 L 155.12366,37.787736 L 188.21316,37.787736 L 196.87015,46.579942 L 205.52713,55.372158 L 205.52713,75.995147 L 205.52713,96.61815 L 226.09604,96.61815 L 246.66497,96.61815 L 254.62281,104.71294 L 262.58066,112.80772 L 262.58066,146.0343 L 262.58066,179.26089 L 234.07024,179.26089 L 205.55982,179.26089 L 205.19558,233.53895 L 204.83136,287.81702 L 172.38433,288.19325 L 139.9373,288.56947 L 130.98573,279.91706 z
M172.46149,200.62193 L 172.82572,146.34386 L 201.35248,146.07754 L 229.87925,145.81124 L 229.87925,129.26885 L 229.87925,112.72648 L 201.0046,112.34788 L 172.12994,111.96928 L 172.12994,83.282849 L 172.12994,54.596423 L 155.43134,54.596423 L 138.73275,54.596423 L 138.73275,83.31127 L 138.73275,112.02612 L 110.29023,112.02612 L 81.847703,112.02612 L 81.415571,128.27802 C 81.177894,137.21656 81.296538,144.93805 81.679214,145.43689 C 82.06189,145.93572 94.898936,146.34386 110.20598,146.34386 L 138.03697,146.34386 L 138.4012,200.62193 L 138.76544,254.9 L 155.43134,254.9 L 172.09725,254.9 L 172.46149,200.62193 z
M434.83045,274.34528 C 430.6289,267.11717 422.59617,253.1666 416.97993,243.34402 L 406.76858,225.48479 L 371.55069,225.48479 C 352.18085,225.48479 336.33279,224.94544 336.33279,224.28624 C 336.33279,223.62703 343.9361,209.91744 353.22902,193.82049 C 362.52194,177.72352 370.14067,163.86635 370.15954,163.02677 C 370.1784,162.18719 362.5751,148.26836 353.26332,132.09603 C 343.95153,115.9237 336.33279,102.27072 336.33279,101.75606 C 336.33279,101.24141 352.00152,100.82032 371.15218,100.82032 L 405.97157,100.82032 L 409.76768,94.766995 C 411.85555,91.43767 419.82577,77.591651 427.4793,63.998056 C 435.13282,50.404466 441.8175,39.261298 442.33414,39.235455 C 442.8508,39.209612 447.83849,47.225116 453.41791,57.047691 C 458.99732,66.870269 466.89007,80.579858 470.95733,87.513443 L 478.35236,100.11996 L 513.82602,100.82032 L 549.29968,101.52069 L 532.42887,130.84448 C 523.14992,146.97258 515.27696,160.90563 514.9334,161.80684 C 514.58984,162.70804 522.16825,177.08784 531.77431,193.76194 C 541.38039,210.43605 549.23989,224.38426 549.23989,224.75799 C 549.23989,225.13172 533.17772,225.60571 513.54617,225.81132 L 477.85245,226.18515 L 461.28576,254.9 C 452.17408,270.69316 444.21294,284.48615 443.59436,285.55108 C 442.80136,286.91624 440.21654,283.61123 434.83045,274.34528 z
M451.00362,240.11346 C 455.28567,232.75125 458.78916,226.44799 458.78916,226.10622 C 458.78916,225.76443 451.58789,225.48479 442.78634,225.48479 C 433.98479,225.48479 426.78352,225.85858 426.78352,226.31543 C 426.78352,227.88112 441.39386,253.43806 442.30644,253.46868 C 442.80785,253.4855 446.72159,247.47565 451.00362,240.11346 z
M395.9375,207.42408 C 394.53245,203.63162 381.41566,180.68566 380.64651,180.67465 C 379.80695,180.66265 364.16379,206.64803 364.16379,208.05466 C 364.16379,208.39645 371.41724,208.67609 380.28257,208.67609 C 389.17025,208.67609 396.19327,208.11443 395.9375,207.42408 z
M471.73106,203.42338 C 473.51084,200.53438 479.50875,190.19579 485.05975,180.44871 L 495.1525,162.72678 L 482.41502,140.53483 C 475.4094,128.32927 468.9497,117.86887 468.06011,117.28949 C 467.17052,116.71013 455.17113,116.39192 441.39479,116.58238 L 416.3469,116.92865 L 408.69338,129.8154 C 404.48394,136.90311 398.5826,147.3424 395.5793,153.01382 L 390.11875,163.32549 L 403.02004,186.00079 L 415.92135,208.67609 L 442.20822,208.67609 L 468.4951,208.67609 L 471.73106,203.42338 z
M520.01735,207.36955 C 520.01735,205.53846 505.60111,180.70303 504.525,180.68025 C 503.53002,180.6592 489.40325,205.73441 489.40325,207.52156 C 489.40325,208.15655 496.29143,208.67609 504.7103,208.67609 C 513.25163,208.67609 520.01735,208.0986 520.01735,207.36955 z
M388.40027,132.22953 C 392.69132,124.85185 395.84475,118.23343 395.4079,117.52193 C 394.46317,115.98323 366.00861,115.75758 365.07301,117.28135 C 364.52231,118.17829 379.20477,145.6435 380.23497,145.6435 C 380.43483,145.6435 384.10922,139.60722 388.40027,132.22953 z
M512.88663,131.80594 C 516.80853,124.96567 520.01735,118.66241 520.01735,117.7987 C 520.01735,116.12754 490.63514,115.4552 489.01183,117.0892 C 488.54143,117.5627 488.98706,119.2961 490.00209,120.94119 C 491.01715,122.58629 494.45625,128.50214 497.64457,134.08752 C 500.83289,139.67291 503.96226,144.24277 504.59871,144.24277 C 505.23518,144.24277 508.96474,138.6462 512.88663,131.80594 z
M458.41492,99.069418 C 458.04532,98.10642 454.29286,91.411994 450.07611,84.192914 L 442.40931,71.067315 L 436.51438,81.391465 C 433.27216,87.069749 429.75636,93.111675 428.70148,94.817968 C 425.21867,100.4515 426.0933,100.82032 442.93522,100.82032 C 455.28729,100.82032 458.92883,100.40843 458.41492,99.069418 z
M717.6174,99.667555 C 713.40796,98.254434 707.94152,96.035211 705.46977,94.735941 C 699.48123,91.588094 683.64744,76.571153 679.92588,70.509855 C 677.07614,65.868471 677.05473,65.553504 679.41049,62.93324 C 682.79355,59.170362 683.75434,59.410278 690.54892,65.714588 C 700.30777,74.769303 709.54211,78.726503 721.02012,78.772475 C 733.10285,78.820856 742.03577,74.987606 750.68169,66.044234 C 753.94267,62.671052 757.38676,60.236481 758.33521,60.634091 C 761.16285,61.819468 778.84558,77.123193 778.84558,78.385021 C 778.84558,81.041564 763.59602,93.145881 755.29579,97.07763 C 743.7882,102.52867 729.13962,103.53559 717.6174,99.667555 z
M715.86431,56.759674 L 707.84925,48.045464 L 716.31973,39.912719 L 724.79022,31.779974 L 733.76279,40.731428 L 742.73538,49.682883 L 734.69892,57.691029 C 730.27887,62.095508 726.03627,65.648488 725.27092,65.586534 C 724.50557,65.524579 720.2726,61.552504 715.86431,56.759674 z " />
    <path transform="translate(0,-20)" d="M375.31118,535.39502 C 375.32119,533.76193 378.91495,531.07365 386.07823,527.34086 C 401.17069,519.47616 416.17135,504.34081 422.94617,490.14192 C 427.73346,480.10855 433.88127,456.2783 432.13571,454.52124 C 430.34045,452.71412 408.70174,458.52252 398.05476,463.66946 C 380.46874,472.17086 364.40853,488.85205 357.79766,505.4832 C 356.01372,509.9711 354.78217,511.23253 352.18452,511.23253 L 348.85674,511.23253 L 348.85674,447.49958 L 348.85674,383.76663 L 352.18452,383.76663 C 354.78083,383.76663 356.0134,385.02726 357.79205,389.50185 C 363.44998,403.73563 375.4686,418.05582 389.41731,427.18339 C 397.77344,432.65136 414.81575,438.86374 425.73986,440.42393 C 431.99287,441.31701 432.34861,441.1932 432.32915,438.13051 C 432.29633,432.96303 428.42019,417.78911 425.12159,409.91502 C 416.99091,390.50627 400.8073,373.98384 381.51176,365.39225 C 377.19623,363.47069 375.29618,361.78401 375.29618,359.87464 C 375.29618,357.17651 376.49775,357.13148 438.95958,357.48891 C 511.07191,357.90158 510.48427,357.78951 492.22604,367.64761 C 467.11646,381.20495 449.7035,406.62621 445.92461,435.24324 C 445.03088,442.01122 444.74282,441.89367 456.79415,439.67879 C 483.48691,434.773 505.36472,418.55797 518.01598,394.30336 C 522.36098,385.97327 524.14774,383.7937 526.64139,383.78173 L 529.78655,383.76663 L 529.42449,447.1494 L 529.06242,510.53217 L 526.06947,510.96156 C 523.65416,511.30809 522.41745,509.95637 519.66169,503.95794 C 511.02517,485.15893 493.59243,468.73138 474.01649,460.94468 C 463.87811,456.91196 448.10184,453.40282 445.9629,454.70469 C 443.74896,456.05223 449.40386,478.0094 454.9762,489.70208 C 462.65638,505.81764 474.19739,517.36668 492.91099,527.66321 C 498.23657,530.59344 502.80289,534.08337 503.05835,535.4186 C 503.49356,537.69335 499.4836,537.84629 439.4095,537.84629 C 379.27119,537.84629 375.29712,537.69431 375.31118,535.39502 z " />
    </g>
    <path transform="translate(399,578) scale(0.08,-0.08)" d="M1840,1395 c -26,236,-162,447,-370,568 c 152,-117,241,-298,241,-489 v-11 c 45,-18,90,-42,129,-68Z 
M2170,750 c 0,410,-332,751,-750,751 c -104,0,-207,-22,-302,-64 c 91,-45,171,-109,237,-186 c 66,23,135,35,205,35 c 315,0,570,-237,610,-536Z 
M1836,1198 c -52,27,-107,46,-165,57 c -88,-232,-313,-397,-576,-397 c -34,0,-67,3,-99,8 c -22,-63,-33,-130,-33,-196 c 0,-32,3,-65,8,-97 c 40,-7,82,-10,124,-10 c 375,0,686,275,741,635Z 
M1473,1013 c -115,307,-405,488,-703,488 c -91,0,-183,-17,-271,-51 c 3,-59,14,-116,33,-172 c 33,6,66,8,98,8 c 244,0,481,-146,577,-398 c 98,19,189,62,266,125Z 
M720,1963 c -232,-134,-375,-382,-375,-650 c 0,-248,120,-468,306,-604 c -1,14,-1,28,-1,41 c 0,87,14,174,44,257 c -132,113,-215,280,-215,467 c 0,191,89,372,241,489Z 
M1082,280 c -91,111,-139,250,-139,391 c 0,155,59,291,139,389 c -65,75,-148,133,-241,168 c -98,-120,-171,-286,-171,-477 c 0,-222,99,-440,279,-585 c 50,32,95,70,133,114Z 
M1795,101 c -76,-31,-156,-47,-236,-47 c -107,0,-213,28,-308,83 l -9,5 c -38,-30,-79,-56,-124,-78 c 96,-42,199,-64,302,-64 c 129,0,259,34,375,101Z 
M1516,668 c -85,-55,-180,-93,-280,-112 c -51,-273,-291,-502,-605,-502 c -80,0,-160,16,-236,47 c 116,-67,246,-101,375,-101 c 389,0,704,294,746,668Z 
M332,1209 c -5,34,-7,69,-7,104 c 0,14,0,28,1,42 c -191,-140,-306,-364,-306,-605 c 25,190,137,358,303,454Z"/>
  </g>
</svg>
